<svg xmlns="http://www.w3.org/2000/svg" viewBox="0 0 1216.7 1264.66"><defs><style>.cls-1{fill:#0f4966;}</style></defs><g id="Calque_2" data-name="Calque 2"><g id="Layer_1" data-name="Layer 1"><path class="cls-1" d="M1111.41,974.07q-105.32,153.9-268,222.25t-497.29,68.34H0V1032.37H389.86q272.77,0,396.07-99.78,136.89-111,136.92-312.24,0-130.75-57.5-220.21T717.47,272.85Q627.1,235,426.43,235H297.62V0h53.75Q649.53,0,770.48,31T995.15,142.72q103.74,80.79,162.64,203.33t58.91,268.66Q1216.7,820.2,1111.41,974.07Z"/><rect class="cls-1" x="96.86" y="693.28" width="48.44" height="48.44" transform="translate(242.17 1435) rotate(180)"/><rect class="cls-1" x="242.12" y="790.16" width="48.44" height="48.44" transform="translate(532.69 1628.77) rotate(180)"/><rect class="cls-1" x="48.44" y="790.16" width="48.44" height="48.44" transform="translate(145.33 1628.77) rotate(180)"/><rect class="cls-1" x="145.28" y="693.28" width="48.44" height="48.44" transform="translate(339.01 1435) rotate(180)"/><rect class="cls-1" x="145.28" y="790.16" width="48.44" height="48.44" transform="translate(339.01 1628.77) rotate(180)"/><rect class="cls-1" x="96.86" y="790.16" width="48.44" height="48.44" transform="translate(242.17 1628.77) rotate(180)"/><rect class="cls-1" x="96.86" y="693.28" width="48.44" height="48.44" transform="translate(242.17 1435) rotate(180)"/><rect class="cls-1" x="96.86" y="790.16" width="48.44" height="48.44" transform="translate(242.17 1628.77) rotate(180)"/><rect class="cls-1" x="48.44" y="741.72" width="48.44" height="48.44" transform="translate(145.33 1531.88) rotate(180)"/><rect class="cls-1" x="0.02" y="741.72" width="48.44" height="48.44" transform="translate(48.49 1531.88) rotate(180)"/><rect class="cls-1" x="0.02" y="741.72" width="48.44" height="48.44" transform="translate(48.49 1531.88) rotate(180)"/><rect class="cls-1" x="193.7" y="741.72" width="48.44" height="48.44" transform="translate(435.85 1531.88) rotate(180)"/><rect class="cls-1" x="96.86" y="741.72" width="48.44" height="48.44" transform="translate(242.17 1531.88) rotate(180)"/><rect class="cls-1" x="96.86" y="741.72" width="48.44" height="48.44" transform="translate(242.17 1531.88) rotate(180)"/><rect class="cls-1" x="193.7" y="741.72" width="48.44" height="48.44" transform="translate(435.85 1531.88) rotate(180)"/><rect class="cls-1" x="193.7" y="644.84" width="48.44" height="48.44" transform="translate(435.85 1338.11) rotate(180)"/><rect class="cls-1" x="242.12" y="596.39" width="48.44" height="48.44" transform="translate(532.69 1241.23) rotate(180)"/><rect class="cls-1" y="644.84" width="48.44" height="48.44" transform="translate(48.44 1338.11) rotate(180)"/><rect class="cls-1" y="644.84" width="48.44" height="48.44" transform="translate(48.44 1338.11) rotate(180)"/><rect class="cls-1" x="145.26" y="596.39" width="48.44" height="48.44" transform="translate(338.96 1241.23) rotate(180)"/><rect class="cls-1" x="96.84" y="596.39" width="48.44" height="48.44" transform="translate(242.12 1241.23) rotate(180)"/><rect class="cls-1" x="96.84" y="596.39" width="48.44" height="48.44" transform="translate(242.12 1241.23) rotate(180)"/><rect class="cls-1" x="242.12" y="935.49" width="48.44" height="48.44" transform="translate(532.69 1919.42) rotate(180)"/><rect class="cls-1" x="96.86" y="935.49" width="48.44" height="48.44" transform="translate(242.17 1919.42) rotate(180)"/><rect class="cls-1" x="145.28" y="935.49" width="48.44" height="48.44" transform="translate(339.01 1919.42) rotate(180)"/><rect class="cls-1" x="0.02" y="935.49" width="48.44" height="48.44" transform="translate(48.49 1919.42) rotate(180)"/><rect class="cls-1" x="0.02" y="935.49" width="48.44" height="48.44" transform="translate(48.49 1919.42) rotate(180)"/><rect class="cls-1" x="96.86" y="935.49" width="48.44" height="48.44" transform="translate(242.17 1919.42) rotate(180)"/><rect class="cls-1" x="242.12" y="983.93" width="48.44" height="48.44" transform="translate(532.69 2016.31) rotate(180)"/><rect class="cls-1" x="145.28" y="983.93" width="48.44" height="48.44" transform="translate(339.01 2016.31) rotate(180)"/><rect class="cls-1" x="0.02" y="983.93" width="48.44" height="48.44" transform="translate(48.49 2016.31) rotate(180)"/><rect class="cls-1" x="0.02" y="983.93" width="48.44" height="48.44" transform="translate(48.49 2016.31) rotate(180)"/><rect class="cls-1" x="242.12" y="983.93" width="48.44" height="48.44" transform="translate(532.69 2016.31) rotate(180)"/><rect class="cls-1" x="193.7" y="983.93" width="48.44" height="48.44" transform="translate(435.85 2016.31) rotate(180)"/><rect class="cls-1" x="96.86" y="983.93" width="48.44" height="48.44" transform="translate(242.17 2016.31) rotate(180)"/><rect class="cls-1" x="96.86" y="983.93" width="48.44" height="48.44" transform="translate(242.17 2016.31) rotate(180)"/><rect class="cls-1" x="193.7" y="983.93" width="48.44" height="48.44" transform="translate(435.85 2016.31) rotate(180)"/><rect class="cls-1" x="193.7" y="887.05" width="48.44" height="48.44" transform="translate(435.85 1822.54) rotate(180)"/><rect class="cls-1" x="242.12" y="838.61" width="48.44" height="48.44" transform="translate(532.69 1725.65) rotate(180)"/><rect class="cls-1" x="145.26" y="887.05" width="48.44" height="48.44" transform="translate(338.96 1822.54) rotate(180)"/><rect class="cls-1" x="48.42" y="887.05" width="48.44" height="48.44" transform="translate(145.28 1822.54) rotate(180)"/><rect class="cls-1" y="887.05" width="48.44" height="48.44" transform="translate(48.44 1822.54) rotate(180)"/><rect class="cls-1" y="887.05" width="48.44" height="48.44" transform="translate(48.44 1822.54) rotate(180)"/><rect class="cls-1" x="96.84" y="838.61" width="48.44" height="48.44" transform="translate(242.12 1725.65) rotate(180)"/><rect class="cls-1" y="838.61" width="48.44" height="48.44" transform="translate(48.44 1725.65) rotate(180)"/><rect class="cls-1" y="838.61" width="48.44" height="48.44" transform="translate(48.44 1725.65) rotate(180)"/><rect class="cls-1" x="96.84" y="838.61" width="48.44" height="48.44" transform="translate(242.12 1725.65) rotate(180)"/><rect class="cls-1" x="193.71" y="354.16" width="48.44" height="48.44" transform="translate(435.86 756.77) rotate(180)"/><rect class="cls-1" x="193.71" y="354.16" width="48.44" height="48.44" transform="translate(435.86 756.77) rotate(180)"/><rect class="cls-1" x="0.03" y="354.16" width="48.44" height="48.44" transform="translate(48.49 756.77) rotate(180)"/><rect class="cls-1" x="0.03" y="354.16" width="48.44" height="48.44" transform="translate(48.49 756.77) rotate(180)"/><rect class="cls-1" x="242.13" y="305.72" width="48.44" height="48.44" transform="translate(532.7 659.88) rotate(180)"/><rect class="cls-1" x="242.13" y="305.72" width="48.44" height="48.44" transform="translate(532.7 659.88) rotate(180)"/><rect class="cls-1" x="193.71" y="208.84" width="48.44" height="48.44" transform="translate(435.86 466.11) rotate(180)"/><rect class="cls-1" y="160.39" width="48.44" height="48.44" transform="translate(48.45 369.23) rotate(180)"/><rect class="cls-1" y="160.39" width="48.44" height="48.44" transform="translate(48.45 369.23) rotate(180)"/><rect class="cls-1" x="96.87" y="499.49" width="48.44" height="48.44" transform="translate(242.17 1047.42) rotate(180)"/><rect class="cls-1" x="96.87" y="499.49" width="48.44" height="48.44" transform="translate(242.17 1047.42) rotate(180)"/><rect class="cls-1" x="145.29" y="547.93" width="48.44" height="48.44" transform="translate(339.01 1144.3) rotate(180)"/><rect class="cls-1" x="193.71" y="547.93" width="48.44" height="48.44" transform="translate(435.86 1144.3) rotate(180)"/><rect class="cls-1" x="193.71" y="451.05" width="48.44" height="48.44" transform="translate(435.86 950.54) rotate(180)"/><rect class="cls-1" x="242.13" y="402.6" width="48.44" height="48.44" transform="translate(532.7 853.65) rotate(180)"/><rect class="cls-1" x="145.26" y="451.05" width="48.44" height="48.44" transform="translate(338.97 950.54) rotate(180)"/><rect class="cls-1" x="48.42" y="451.05" width="48.44" height="48.44" transform="translate(145.29 950.54) rotate(180)"/><rect class="cls-1" x="96.84" y="402.6" width="48.44" height="48.44" transform="translate(242.13 853.65) rotate(180)"/><rect class="cls-1" x="96.84" y="402.6" width="48.44" height="48.44" transform="translate(242.13 853.65) rotate(180)"/></g></g></svg>